<svg width="1357" height="768" viewBox="0 0 1357 768" fill="none" xmlns="http://www.w3.org/2000/svg">
<rect opacity="0.2" width="1366" height="768" fill="url(#paint0_linear_0_1540)"/>
<path d="M807.5 473.5C805.5 473.5 803.333 471.833 802.5 471L804 469C804 468 804.1 465.9 804.5 465.5C804.9 465.1 805.667 465 806 465L805.5 466.5C806.177 465.448 806.478 464.755 807 463.5C809.176 463.913 810.19 464.517 811.5 466.5L811 468.5L808.5 471C808.333 471.333 807.9 472.3 807.5 473.5Z" fill="#F2C94C"/>
<path opacity="0.4" d="M1270.61 164.41C1125.83 95.5175 1061.97 283.909 962.138 314.906C862.394 360.253 766.215 307.176 706.828 352.674C612.694 424.794 654.01 550.963 714.274 604.05C800.694 680.18 954.272 652.78 1113.01 570.462C1311.89 467.329 1397.55 224.817 1270.61 164.41Z" fill="#98C3E8"/>
<path opacity="0.2" d="M789.5 239.5C794.5 252 779.5 271.5 758 278C739.5 283.593 721.5 283 716.5 270C712.077 258.5 726 246 742 239.5C758 233 784.5 227 789.5 239.5Z" fill="#98C3E8"/>
<path opacity="0.2" d="M953 214C949.109 204.06 962.816 180.866 979.802 175.799C994.419 171.438 1008.11 161.164 1012 171.5C1015.44 180.644 1004.91 201.325 992.26 206.415C979.612 211.505 956.891 223.94 953 214Z" fill="#98C3E8"/>
<path opacity="0.2" d="M941.792 706.215C937.901 696.276 949.816 680.866 966.802 675.799C981.419 671.438 995.614 671.985 999.503 682.321C1002.94 691.465 991.908 701.325 979.26 706.415C966.612 711.505 945.684 716.155 941.792 706.215Z" fill="#98C3E8"/>
<path opacity="0.2" d="M1117.57 655.55C1109.48 636.52 1135.28 594.235 1170.57 584.55C1200.94 576.216 1249.98 593.26 1258.07 613.05C1265.23 630.555 1218.35 627.66 1192.07 637.393C1165.79 647.126 1125.67 674.579 1117.57 655.55Z" fill="#98C3E8"/>
<mask id="mask0_0_1540" style="mask-type:alpha" maskUnits="userSpaceOnUse" x="666" y="153" width="648" height="490">
<path d="M1252.96 165.944C1112.39 103.869 1056.04 286.479 961.141 319.024C866.694 365.339 773.118 317.084 717.364 362.416C628.988 434.272 671.861 554.217 731.006 603.486C815.824 674.139 962.342 643.544 1112.39 560.093C1300.38 455.539 1376.22 220.374 1252.96 165.944Z" fill="#98C3E8"/>
</mask>
<g mask="url(#mask0_0_1540)">
<rect x="560.917" y="72.4017" width="805.162" height="681.485" fill="url(#paint1_linear_0_1540)"/>
<path d="M662.509 289.467C736.336 326.697 818.998 430.904 818.998 480.662C818.998 541.869 689.221 635.678 629.696 688.893L1137.65 721.705C1119.57 640.726 1073.89 460.7 1101.69 420.716C1137.65 368.974 1283.21 381.594 1364.82 391.059L1386.9 160.742C1347.15 177.359 1258.18 225.105 1209.59 212.485C1164.62 200.803 1078.34 150.436 1041.74 118.465" stroke="white" stroke-opacity="0.2" stroke-width="15"/>
<path d="M852.441 232.677C872.634 337.844 927.531 530.637 985.583 460.469C1058.15 372.76 1115.57 259.179 1169.84 334.269C1213.25 394.34 1277.11 512.843 1303.61 564.585" stroke="white" stroke-opacity="0.2" stroke-width="15"/>
<path fill-rule="evenodd" clip-rule="evenodd" d="M1080 294C1080 298.418 1076.42 302 1072 302C1067.58 302 1064 298.418 1064 294C1064 289.582 1067.58 286 1072 286C1076.42 286 1080 289.582 1080 294ZM749 467C753.418 467 757 463.418 757 459C757 454.582 753.418 451 749 451C744.582 451 741 454.582 741 459C741 463.418 744.582 467 749 467ZM923 569C927.418 569 931 565.418 931 561C931 556.582 927.418 553 923 553C918.582 553 915 556.582 915 561C915 565.418 918.582 569 923 569ZM1197 451C1201.42 451 1205 447.418 1205 443C1205 438.582 1201.42 435 1197 435C1192.58 435 1189 438.582 1189 443C1189 447.418 1192.58 451 1197 451Z" fill="white" fill-opacity="0.6"/>
<circle cx="719" cy="546" r="18" stroke="white" stroke-opacity="0.4" stroke-width="8"/>
<circle cx="1299" cy="269" r="18" stroke="white" stroke-opacity="0.4" stroke-width="8"/>
<circle cx="1049" cy="502" r="18" stroke="white" stroke-opacity="0.4" stroke-width="8"/>
</g>
<g filter="url(#filter0_d_0_1540)">
<rect x="1099" y="223" width="88" height="88" rx="10" fill="white"/>
</g>
<path d="M1139 283V271H1147V283H1157V267H1163L1143 249L1123 267H1129V283H1139Z" fill="#5A98D0"/>
<g filter="url(#filter1_d_0_1540)">
<path d="M1086.42 133H1058.99C1055.21 133 1052.14 136.048 1052.14 139.807V167.049C1052.14 170.809 1055.21 173.856 1058.99 173.856H1086.42C1090.21 173.856 1093.28 170.809 1093.28 167.049V139.807C1093.28 136.048 1090.21 133 1086.42 133Z" fill="#56CCF2"/>
</g>
<path d="M1083 152H1078.83L1082.07 148.76L1080.66 147.34L1076 152H1074V150L1078.66 145.34L1077.24 143.93L1074 147.17V143H1072V147.17L1068.76 143.93L1067.34 145.34L1072 150V152H1070L1065.34 147.34L1063.93 148.76L1067.17 152H1063V154H1067.17L1063.93 157.24L1065.34 158.66L1070 154H1072V156L1067.34 160.66L1068.76 162.07L1072 158.83V163H1074V158.83L1077.24 162.07L1078.66 160.66L1074 156V154H1076L1080.66 158.66L1082.07 157.24L1078.83 154H1083V152Z" fill="white"/>
<g filter="url(#filter2_d_0_1540)">
<path d="M1260.28 236H1232.85C1229.07 236 1226 239.048 1226 242.807V270.049C1226 273.809 1229.07 276.856 1232.85 276.856H1260.28C1264.07 276.856 1267.14 273.809 1267.14 270.049V242.807C1267.14 239.048 1264.07 236 1260.28 236Z" fill="#F2C94C"/>
</g>
<path d="M1256 253C1256 248 1252 244 1247 244C1242 244 1238 248 1238 253C1238 256.1 1239.6 258.9 1242 260.5V263C1242 264.3 1242.8 265.4 1244 265.8V266C1244 267.7 1245.3 269 1247 269C1248.7 269 1250 267.7 1250 266V265.8C1251.2 265.4 1252 264.3 1252 263V260.5C1254.4 258.9 1256 256.1 1256 253ZM1240 253C1240 249.1 1243.1 246 1247 246C1250.9 246 1254 249.1 1254 253C1254 256.5 1251.4 259.4 1248 259.9V257.4L1249.7 255.7C1250.1 255.3 1250.1 254.7 1249.7 254.3C1249.3 253.9 1248.7 253.9 1248.3 254.3L1247 255.6L1245.7 254.3C1245.3 253.9 1244.7 253.9 1244.3 254.3C1243.9 254.7 1243.9 255.3 1244.3 255.7L1246 257.4V259.9C1242.6 259.4 1240 256.5 1240 253ZM1247 267C1246.4 267 1246 266.6 1246 266H1248C1248 266.6 1247.6 267 1247 267ZM1250 263C1250 263.6 1249.6 264 1249 264H1245C1244.4 264 1244 263.6 1244 263V261.5C1244.9 261.8 1245.9 262 1247 262C1248.1 262 1249.1 261.8 1250 261.5V263Z" fill="white"/>
<g filter="url(#filter3_d_0_1540)">
<path d="M1040.28 236H1012.85C1009.07 236 1006 239.048 1006 242.807V270.049C1006 273.809 1009.07 276.856 1012.85 276.856H1040.28C1044.07 276.856 1047.14 273.809 1047.14 270.049V242.807C1047.14 239.048 1044.07 236 1040.28 236Z" fill="#F58A8A"/>
</g>
<path d="M1033 252H1032V250C1032 247.24 1029.76 245 1027 245C1024.24 245 1022 247.24 1022 250V252H1021C1019.9 252 1019 252.9 1019 254V264C1019 265.1 1019.9 266 1021 266H1033C1034.1 266 1035 265.1 1035 264V254C1035 252.9 1034.1 252 1033 252ZM1027 261C1025.9 261 1025 260.1 1025 259C1025 257.9 1025.9 257 1027 257C1028.1 257 1029 257.9 1029 259C1029 260.1 1028.1 261 1027 261ZM1030.1 252H1023.9V250C1023.9 248.29 1025.29 246.9 1027 246.9C1028.71 246.9 1030.1 248.29 1030.1 250V252Z" fill="white"/>
<g filter="url(#filter4_d_0_1540)">
<path d="M1214.28 133H1186.85C1183.07 133 1180 136.048 1180 139.807V167.049C1180 170.809 1183.07 173.856 1186.85 173.856H1214.28C1218.07 173.856 1221.14 170.809 1221.14 167.049V139.807C1221.14 136.048 1218.07 133 1214.28 133Z" fill="#6FCF97"/>
</g>
<path d="M1206.31 147.896H1189.98V158.103H1206.31V147.896Z" fill="white"/>
<path d="M1210.71 149.928L1207.11 151.443V154.6L1210.71 156.115H1212.02V149.928H1210.71Z" fill="white"/>
<path d="M1146.39 306C1145.27 310.364 1146.79 312.88 1147.98 313.5C1150.34 314.73 1152.98 316.27 1152.98 316.27C1152.98 316.27 1169.41 344.414 1174.17 346.429C1179.72 348.778 1192.42 350 1192.42 350L1197.98 338.889C1197.98 338.889 1185.28 336.111 1179.72 334.921C1175.98 334.118 1159.49 316.27 1159.49 316.27L1162.66 310.714H1156.71C1152.34 307.54 1149.98 301 1149.98 301C1149.98 301 1147.15 303.02 1146.39 306Z" fill="url(#paint2_linear_0_1540)"/>
<path d="M1211.48 356.5C1209.48 354.5 1197.98 351.333 1192.48 350L1197.98 339C1200.14 339 1206.48 338.5 1214.48 336.5C1224.48 334 1227.98 325 1239.48 334.5C1248.68 342.1 1264.64 375.333 1271.48 391C1260.73 401.243 1253.59 404.569 1239.48 407.5C1238.64 405.833 1236.18 400.2 1232.98 391C1228.98 379.5 1216.48 379.5 1214.48 375.5C1212.48 371.5 1213.98 359 1211.48 356.5Z" fill="url(#paint3_linear_0_1540)"/>
<path d="M1247.48 470C1243.88 462 1243.81 424 1242.48 406.5C1254.67 404.103 1261.11 401.016 1271.48 390.5C1271.48 390.5 1288.48 398.5 1287.48 417C1286.48 435.5 1294 444.841 1298.48 451C1302.48 456.5 1311.98 468.167 1316.98 476L1311.98 485.5C1306.48 479.667 1290.38 467.8 1281.98 461C1273.58 454.2 1270.81 437.167 1269.48 428C1268.64 437.667 1264.48 455.4 1266.48 461C1268.48 466.6 1289.98 483.5 1298.48 492L1295.48 500.5C1280.98 493.667 1251.08 478 1247.48 470Z" fill="url(#paint4_linear_0_1540)"/>
<path d="M1205.48 322.5C1205.88 320.9 1205.31 316.167 1205.98 314.5C1210.78 315.3 1213.48 318.667 1214.48 320C1215.48 319.833 1216.91 319.369 1217.48 320.5C1217.98 321.5 1217.48 323.5 1215.98 325L1219.48 334.5C1217.82 335.577 1216.81 335.939 1214.98 336.5C1215.98 334 1215.48 332 1214.98 331C1211.38 333.8 1209.98 333.667 1208.48 333.5L1206.98 327L1204.48 327.5C1204.98 326.667 1205.08 324.1 1205.48 322.5Z" fill="url(#paint5_linear_0_1540)"/>
<path d="M1214.48 320C1212.48 317.2 1207.64 315.167 1205.48 314.5C1201.48 311.5 1203.48 305 1212.98 302C1222.48 299 1226.48 307 1228.48 309C1230.48 311 1231.48 317.5 1240.48 321.5C1249.48 325.5 1248.98 320.5 1254.48 320.5C1259.98 320.5 1262.48 324 1261.48 327C1260.48 330 1259.98 333.5 1265.98 337.5C1271.98 341.5 1266.48 347 1265.98 353C1265.48 359 1257.48 356 1248.98 356C1240.48 356 1241.98 356 1240.48 350.5C1238.98 345 1236.48 343 1233.48 341.5C1230.48 340 1223.48 341 1221.98 339.5C1220.78 338.3 1217.48 329.333 1215.98 325C1216.64 324 1217.88 321.7 1217.48 320.5C1217.08 319.3 1215.31 319.667 1214.48 320Z" fill="#F2994A"/>
<path d="M1195.48 380.5L1219.48 379C1222.28 379.4 1226.98 382.833 1228.98 384.5C1228.31 386 1226.38 389 1223.98 389C1221.58 389 1203.98 386 1195.48 384.5H1193.48V377L1195.48 380.5Z" fill="url(#paint6_linear_0_1540)"/>
<path d="M1193.48 388V371H1184.98V388H1193.48Z" fill="#F2C94C"/>
<path d="M1311.98 514.5C1309.58 514.1 1299.81 504.833 1295.48 500.5L1298.48 492C1300.48 492.833 1304.68 494.3 1305.48 495.5C1306.48 497 1314.98 515 1311.98 514.5Z" fill="#5A98D0"/>
<path d="M1323.98 503.5C1322.78 501.5 1315.48 491.833 1311.98 485.5L1316.98 476C1319.31 478 1319.48 478 1321.98 481.5C1323.14 483.127 1325.48 506 1323.98 503.5Z" fill="#5A98D0"/>
<path opacity="0.2" d="M1272.48 413.5L1269.48 428.5C1269.98 434 1272.98 447.5 1277.98 457C1271.98 438 1273.98 423.833 1272.48 413.5Z" fill="black"/>
<path d="M842 638L840.5 633L848.5 631.5C852.333 633.5 859.7 637.9 858.5 639.5C858.1 640.3 847.333 638.833 842 638Z" fill="#D06262"/>
<path d="M801.5 591L806 598.5C805.667 603.667 804.6 613.8 803 613C801.4 612.2 796.333 599.333 794 593L801.5 591Z" fill="#D06262"/>
<path d="M775.328 545.993C769.999 540.458 765.156 530.024 763.401 525.5C768.529 523.019 779.924 517.352 784.484 514.522C789.044 511.693 797.693 505.274 801.447 502.418C803.637 504.392 810.01 509.262 817.981 512.948C838.452 522.613 850.145 535.095 854.185 546.272C857.418 555.213 844.175 568.449 836.651 573.994C832.292 566.586 829.669 563.59 824.501 556.534L826.257 548.338L815.933 545.271C817.459 547.307 822.461 554.01 830.258 564.54C844.328 582.125 849.2 612.172 849.878 624.997C847.253 625.573 840.79 626.636 835.937 626.279C835.364 620.05 827.559 606.211 820.106 593.959C818.59 595.773 816.489 597.942 815.265 598.054C809.07 596.214 807.151 588.089 806.966 584.256L811.648 580.335C811.006 579.31 810.406 578.349 809.856 577.463C802.193 565.113 781.99 552.912 775.328 545.993Z" fill="#1F3F68"/>
<path d="M803.347 501.239C788.813 512.451 758.728 532.557 754.662 523.291C749.58 511.708 750.576 511.616 747.766 508.36C744.955 505.103 744.269 497.635 742.998 494.739C742.359 493.284 737.211 486.917 733.095 479.08C733.095 479.08 732.972 478.853 732.763 478.439C729.841 472.737 727.533 466.32 727.913 460.477C728.203 451.914 734.716 446.391 734.716 446.391C738.598 442.253 742.239 441.558 743.5 441.669L743.523 441.685C746.558 443.749 751.045 446.8 752.634 446.654C754.228 446.508 756.5 443.5 758 442C765.606 442.807 767.929 440.859 773.874 441.669C781.205 442.669 801 453 816.5 425.5C818.04 425.861 821.511 427.229 824 427C815.5 452 808 459.781 801 462.231C795.628 464.112 791.395 464.636 788.052 464.602C787.438 467.863 786.623 473.224 785.263 478.691C788.058 483.807 791.012 488.505 793.332 490.612C799.358 496.083 806.163 499.102 803.347 501.239Z" fill="white"/>
<path d="M803.062 530.89L816.477 545.723L826.258 548.338L825.674 552.911C827.919 550.027 830.797 543.101 824.346 538.472C817.895 533.844 807.469 531.489 803.062 530.89Z" fill="black" fill-opacity="0.2"/>
<path d="M811.625 580.313L819.923 594.111L818.567 595.742C817.342 593.344 814.126 591.129 811.408 588.869C809.233 587.061 808.777 583.922 808.821 582.579L811.625 580.313Z" fill="black" fill-opacity="0.2"/>
<path d="M773.067 505.028C758.87 503.522 741.604 488.675 734.746 481.439C750.604 495.546 769.032 499.374 774.87 497.331C779.54 495.696 783.12 483.527 785.001 478.5L788.799 485.003C789.471 492.306 787.265 506.534 773.067 505.028Z" fill="black" fill-opacity="0.2"/>
<path d="M767.967 476.877C764.82 477.452 756.674 470.551 753.019 467.206C766.474 477.014 766.5 472 783.5 460C782.762 461.072 775.5 475.5 767.967 476.877Z" fill="black" fill-opacity="0.2"/>
<path d="M788.5 462.5C786.787 462.156 785.296 461.576 783.5 460L785 456.5C784.833 455.667 784.6 453.8 785 453C785.4 452.2 787 451.333 787.5 451L787 453.5L789.5 450.5L793.5 454L793 457.5L790 459L788.5 462.5Z" fill="#F2994A"/>
<path d="M825 422L824 427C822.4 427.4 818.167 426.167 816.5 425.5C817 424 818.6 420 819 418C819.4 416 823.167 413.833 825 413H827L825 416.5V422Z" fill="#F2994A"/>
<path d="M741 431.5C741.8 433.1 744 436.5 745 438C745.666 436.667 746.6 433.7 745 432.5C743.4 431.3 742 429.333 741.5 428.5C742 428.167 743.3 427.5 744.5 427.5C743.7 421.5 747.833 419.333 750 419L758.5 418.5L759 421C762.166 418 767.9 411.5 765.5 409.5C762.5 407 753.5 413.5 747.5 413.5C741.5 413.5 739 416.5 737.5 419.5C736 422.5 740 429.5 741 431.5Z" fill="#316099"/>
<path d="M752.5 447C750.9 447 746.333 443.833 743.5 442C744.833 441.333 745.5 438.8 745.5 438C745.5 437 746.5 433 745.5 432.5C744.5 432 741.5 430 741.5 429C741.5 428.2 743.5 428 744.5 428C744.167 426.333 744.1 422.5 746.5 420.5C748.9 418.5 755.5 418.333 758.5 418.5C758.667 419.167 759.3 422 760.5 428C761.7 434 759 436.833 757.5 437.5L758 442C756.833 443.5 754.1 447 752.5 447Z" fill="#F2994A"/>
<path d="M848.5 631.5L848 625.5C844.469 626.446 842.371 626.613 838.5 626.5L840.5 633L848.5 631.5Z" fill="#98C3E8"/>
<path d="M806 598.5L812 596.5C809.322 593.423 808.421 591.668 807.5 588.5L801.5 591L806 598.5Z" fill="#98C3E8"/>
<rect opacity="0.8" x="833" y="351" width="266.284" height="189.301" rx="5" fill="url(#paint7_linear_0_1540)"/>
<path d="M833 356C833 353.239 835.239 351 838 351H909.983V540.301H838C835.239 540.301 833 538.063 833 535.301V356Z" fill="white"/>
<circle cx="845" cy="363" r="4" fill="#FA9595"/>
<circle cx="858" cy="363" r="4" fill="#FDF397"/>
<circle cx="870" cy="363" r="4" fill="#C1FEBB"/>
<path opacity="0.4" fill-rule="evenodd" clip-rule="evenodd" d="M842 457H900V464H842V457ZM842 471H900V478H842V471ZM881 487H842V494H881V487Z" fill="#5A98D0"/>
<path opacity="0.1" fill-rule="evenodd" clip-rule="evenodd" d="M1019 376H1077V383H1019V376ZM1019 390H1077V397H1019V390ZM1058 406H1019V413H1058V406Z" fill="black"/>
<g filter="url(#filter5_d_0_1540)">
<rect x="825" y="377" width="81" height="50" rx="5" fill="#56CCF2"/>
</g>
<path d="M849.344 399.136C848.688 398.24 847.76 397.792 846.544 397.792C845.44 397.792 844.512 398.192 843.728 399.008C842.944 399.824 842.56 400.816 842.56 402C842.56 403.168 842.944 404.176 843.728 404.992C844.512 405.808 845.44 406.208 846.544 406.208C847.76 406.208 848.688 405.76 849.344 404.848V406H851.072V398H849.344V399.136ZM845.008 403.84C844.528 403.344 844.288 402.736 844.288 402C844.288 401.264 844.528 400.656 845.008 400.176C845.488 399.68 846.096 399.44 846.816 399.44C847.536 399.44 848.144 399.68 848.624 400.176C849.104 400.656 849.344 401.264 849.344 402C849.344 402.736 849.104 403.344 848.624 403.84C848.144 404.32 847.536 404.56 846.816 404.56C846.096 404.56 845.488 404.32 845.008 403.84ZM858.078 394.592C855.71 394.448 854.462 395.648 854.462 397.84V398H853.246V399.664H854.462V406H856.19V399.664H858.078V398H856.19V397.84C856.19 396.672 856.814 396.144 858.078 396.256V394.592ZM861.617 398H859.889V406H861.617V401.968C861.617 401.152 861.857 400.56 862.353 400.208C862.849 399.84 863.425 399.68 864.081 399.728V397.856C862.881 397.856 862.049 398.352 861.617 399.344V398ZM867.79 396.48C868.238 396.032 868.238 395.36 867.806 394.928C867.374 394.48 866.67 394.48 866.238 394.928C865.806 395.36 865.806 396.032 866.238 396.48C866.686 396.912 867.358 396.912 867.79 396.48ZM867.886 406V398H866.158V406H867.886ZM877.028 399.136C876.372 398.24 875.444 397.792 874.228 397.792C873.124 397.792 872.196 398.192 871.412 399.008C870.628 399.824 870.244 400.816 870.244 402C870.244 403.168 870.628 404.176 871.412 404.992C872.196 405.808 873.124 406.208 874.228 406.208C875.444 406.208 876.372 405.76 877.028 404.848V406H878.756V398H877.028V399.136ZM872.692 403.84C872.212 403.344 871.972 402.736 871.972 402C871.972 401.264 872.212 400.656 872.692 400.176C873.172 399.68 873.78 399.44 874.5 399.44C875.22 399.44 875.828 399.68 876.308 400.176C876.788 400.656 877.028 401.264 877.028 402C877.028 402.736 876.788 403.344 876.308 403.84C875.828 404.32 875.22 404.56 874.5 404.56C873.78 404.56 873.172 404.32 872.692 403.84ZM885.779 397.792C884.643 397.792 883.827 398.208 883.299 399.024V398H881.571V406H883.299V401.712C883.299 400.16 884.115 399.408 885.331 399.408C886.435 399.408 887.123 400.064 887.123 401.264V406H888.851V401.088C888.851 399.04 887.619 397.792 885.779 397.792Z" fill="white"/>
<rect x="927" y="369" width="79" height="77" rx="5" fill="#EB5757"/>
<g clip-path="url(#clip0_0_1540)">
<path d="M958 394V422L980 408L958 394Z" fill="white"/>
</g>
<g filter="url(#filter6_d_0_1540)">
<rect x="927" y="459" width="154" height="63" rx="5" fill="#6FCF97"/>
</g>
<path d="M940.5 504C950 497.5 954 489 972 489C990 489 991.58 499 1002.5 499C1015.5 499 1028 479.5 1042 479.5C1056 479.5 1059.5 489.5 1067 490" stroke="black" stroke-opacity="0.1" stroke-width="2" stroke-linecap="round" stroke-linejoin="round"/>
<path d="M940 504.5C949.5 498 952 479 970 479C988 479 992.08 495.5 1003 495.5C1016 495.5 1027.5 468.5 1041.5 468.5C1055.5 468.5 1060 489.5 1067.5 490" stroke="white" stroke-width="2" stroke-linecap="round" stroke-linejoin="round"/>
<defs>
<filter id="filter0_d_0_1540" x="1049" y="173" width="188" height="188" filterUnits="userSpaceOnUse" color-interpolation-filters="sRGB">
<feFlood flood-opacity="0" result="BackgroundImageFix"/>
<feColorMatrix in="SourceAlpha" type="matrix" values="0 0 0 0 0 0 0 0 0 0 0 0 0 0 0 0 0 0 127 0" result="hardAlpha"/>
<feOffset/>
<feGaussianBlur stdDeviation="25"/>
<feColorMatrix type="matrix" values="0 0 0 0 0.0627451 0 0 0 0 0.439216 0 0 0 0 0.694118 0 0 0 0.25 0"/>
<feBlend mode="normal" in2="BackgroundImageFix" result="effect1_dropShadow_0_1540"/>
<feBlend mode="normal" in="SourceGraphic" in2="effect1_dropShadow_0_1540" result="shape"/>
</filter>
<filter id="filter1_d_0_1540" x="1042.14" y="123" width="71.1377" height="70.8561" filterUnits="userSpaceOnUse" color-interpolation-filters="sRGB">
<feFlood flood-opacity="0" result="BackgroundImageFix"/>
<feColorMatrix in="SourceAlpha" type="matrix" values="0 0 0 0 0 0 0 0 0 0 0 0 0 0 0 0 0 0 127 0" result="hardAlpha"/>
<feOffset dx="5" dy="5"/>
<feGaussianBlur stdDeviation="7.5"/>
<feColorMatrix type="matrix" values="0 0 0 0 0 0 0 0 0 0 0 0 0 0 0 0 0 0 0.15 0"/>
<feBlend mode="normal" in2="BackgroundImageFix" result="effect1_dropShadow_0_1540"/>
<feBlend mode="normal" in="SourceGraphic" in2="effect1_dropShadow_0_1540" result="shape"/>
</filter>
<filter id="filter2_d_0_1540" x="1216" y="226" width="71.1377" height="70.8561" filterUnits="userSpaceOnUse" color-interpolation-filters="sRGB">
<feFlood flood-opacity="0" result="BackgroundImageFix"/>
<feColorMatrix in="SourceAlpha" type="matrix" values="0 0 0 0 0 0 0 0 0 0 0 0 0 0 0 0 0 0 127 0" result="hardAlpha"/>
<feOffset dx="5" dy="5"/>
<feGaussianBlur stdDeviation="7.5"/>
<feColorMatrix type="matrix" values="0 0 0 0 0 0 0 0 0 0 0 0 0 0 0 0 0 0 0.15 0"/>
<feBlend mode="normal" in2="BackgroundImageFix" result="effect1_dropShadow_0_1540"/>
<feBlend mode="normal" in="SourceGraphic" in2="effect1_dropShadow_0_1540" result="shape"/>
</filter>
<filter id="filter3_d_0_1540" x="996" y="226" width="71.1377" height="70.8561" filterUnits="userSpaceOnUse" color-interpolation-filters="sRGB">
<feFlood flood-opacity="0" result="BackgroundImageFix"/>
<feColorMatrix in="SourceAlpha" type="matrix" values="0 0 0 0 0 0 0 0 0 0 0 0 0 0 0 0 0 0 127 0" result="hardAlpha"/>
<feOffset dx="5" dy="5"/>
<feGaussianBlur stdDeviation="7.5"/>
<feColorMatrix type="matrix" values="0 0 0 0 0 0 0 0 0 0 0 0 0 0 0 0 0 0 0.15 0"/>
<feBlend mode="normal" in2="BackgroundImageFix" result="effect1_dropShadow_0_1540"/>
<feBlend mode="normal" in="SourceGraphic" in2="effect1_dropShadow_0_1540" result="shape"/>
</filter>
<filter id="filter4_d_0_1540" x="1170" y="123" width="71.1377" height="70.8561" filterUnits="userSpaceOnUse" color-interpolation-filters="sRGB">
<feFlood flood-opacity="0" result="BackgroundImageFix"/>
<feColorMatrix in="SourceAlpha" type="matrix" values="0 0 0 0 0 0 0 0 0 0 0 0 0 0 0 0 0 0 127 0" result="hardAlpha"/>
<feOffset dx="5" dy="5"/>
<feGaussianBlur stdDeviation="7.5"/>
<feColorMatrix type="matrix" values="0 0 0 0 0 0 0 0 0 0 0 0 0 0 0 0 0 0 0.15 0"/>
<feBlend mode="normal" in2="BackgroundImageFix" result="effect1_dropShadow_0_1540"/>
<feBlend mode="normal" in="SourceGraphic" in2="effect1_dropShadow_0_1540" result="shape"/>
</filter>
<filter id="filter5_d_0_1540" x="820" y="372" width="101" height="70" filterUnits="userSpaceOnUse" color-interpolation-filters="sRGB">
<feFlood flood-opacity="0" result="BackgroundImageFix"/>
<feColorMatrix in="SourceAlpha" type="matrix" values="0 0 0 0 0 0 0 0 0 0 0 0 0 0 0 0 0 0 127 0" result="hardAlpha"/>
<feOffset dx="5" dy="5"/>
<feGaussianBlur stdDeviation="5"/>
<feColorMatrix type="matrix" values="0 0 0 0 0.0627451 0 0 0 0 0.439216 0 0 0 0 0.694118 0 0 0 0.2 0"/>
<feBlend mode="normal" in2="BackgroundImageFix" result="effect1_dropShadow_0_1540"/>
<feBlend mode="normal" in="SourceGraphic" in2="effect1_dropShadow_0_1540" result="shape"/>
</filter>
<filter id="filter6_d_0_1540" x="917" y="453" width="174" height="83" filterUnits="userSpaceOnUse" color-interpolation-filters="sRGB">
<feFlood flood-opacity="0" result="BackgroundImageFix"/>
<feColorMatrix in="SourceAlpha" type="matrix" values="0 0 0 0 0 0 0 0 0 0 0 0 0 0 0 0 0 0 127 0" result="hardAlpha"/>
<feOffset dy="4"/>
<feGaussianBlur stdDeviation="5"/>
<feColorMatrix type="matrix" values="0 0 0 0 0.435294 0 0 0 0 0.811765 0 0 0 0 0.592157 0 0 0 0.2 0"/>
<feBlend mode="normal" in2="BackgroundImageFix" result="effect1_dropShadow_0_1540"/>
<feBlend mode="normal" in="SourceGraphic" in2="effect1_dropShadow_0_1540" result="shape"/>
</filter>
<linearGradient id="paint0_linear_0_1540" x1="683" y1="768" x2="683" y2="529" gradientUnits="userSpaceOnUse">
<stop offset="0.283925" stop-color="#98C3E8"/>
<stop offset="1" stop-color="#98C3E8" stop-opacity="0"/>
</linearGradient>
<linearGradient id="paint1_linear_0_1540" x1="1021.62" y1="26.6813" x2="983.792" y2="697.507" gradientUnits="userSpaceOnUse">
<stop stop-color="#D1ECFF"/>
<stop offset="1" stop-color="#1070B1"/>
</linearGradient>
<linearGradient id="paint2_linear_0_1540" x1="1205.74" y1="313.576" x2="1153.96" y2="347.395" gradientUnits="userSpaceOnUse">
<stop stop-color="#FFF8E1"/>
<stop offset="1" stop-color="#FFCC80"/>
</linearGradient>
<linearGradient id="paint3_linear_0_1540" x1="1231.98" y1="330.241" x2="1231.98" y2="407.5" gradientUnits="userSpaceOnUse">
<stop stop-color="#AF6CED"/>
<stop offset="1" stop-color="#5E199D"/>
</linearGradient>
<linearGradient id="paint4_linear_0_1540" x1="1279.73" y1="390.5" x2="1279.73" y2="500.5" gradientUnits="userSpaceOnUse">
<stop stop-color="#EB5757"/>
<stop offset="1" stop-color="#872727"/>
</linearGradient>
<linearGradient id="paint5_linear_0_1540" x1="1221.72" y1="320.146" x2="1203.6" y2="327.755" gradientUnits="userSpaceOnUse">
<stop stop-color="#FFF8E1"/>
<stop offset="1" stop-color="#FFCC80"/>
</linearGradient>
<linearGradient id="paint6_linear_0_1540" x1="1234.28" y1="380.08" x2="1222.6" y2="401.359" gradientUnits="userSpaceOnUse">
<stop stop-color="#FFF8E1"/>
<stop offset="1" stop-color="#FFCC80"/>
</linearGradient>
<linearGradient id="paint7_linear_0_1540" x1="839.393" y1="420.155" x2="1144.89" y2="453.655" gradientUnits="userSpaceOnUse">
<stop offset="0.127122" stop-color="white"/>
<stop offset="0.972261" stop-color="white" stop-opacity="0.8"/>
</linearGradient>
<clipPath id="clip0_0_1540">
<rect width="48" height="48" fill="white" transform="translate(942 384)"/>
</clipPath>
</defs>
</svg>
